<svg xmlns="http://www.w3.org/2000/svg" width="549" height="587" viewBox="0 0 549 587" fill="none"><mask id="mask0_2014_99" style="mask-type:luminance" maskUnits="userSpaceOnUse" x="189" y="9" width="360" height="476"><path d="M189.36 9.68066H549V484.486H189.36V9.68066Z" fill="white"></path></mask><g mask="url(#mask0_2014_99)"><path d="M548.621 61.8762L546.529 87.6111L545.579 99.2463L519.151 423.172L516.501 455.659C516.417 456.634 516.289 457.609 516.116 458.579C515.936 459.548 515.718 460.504 515.448 461.447C515.179 462.397 514.858 463.328 514.499 464.239C514.139 465.157 513.735 466.055 513.286 466.928C512.836 467.801 512.342 468.654 511.81 469.482C511.277 470.31 510.706 471.106 510.096 471.876C509.48 472.653 508.832 473.391 508.151 474.097C507.465 474.802 506.746 475.476 505.995 476.112C505.244 476.747 504.468 477.35 503.659 477.909C502.85 478.467 502.016 478.987 501.156 479.468C500.296 479.943 499.411 480.379 498.512 480.771C497.607 481.162 496.689 481.509 495.753 481.811C494.816 482.112 493.866 482.369 492.903 482.574C491.94 482.78 490.971 482.94 489.989 483.056C489.014 483.171 488.032 483.235 487.05 483.248C486.062 483.267 485.08 483.235 484.098 483.152L440.721 479.616L436.402 479.269L403.216 476.561L368.387 468.417L213.304 432.157C212.341 431.932 211.398 431.656 210.461 431.342C209.524 431.027 208.613 430.662 207.714 430.251C206.816 429.847 205.937 429.397 205.083 428.903C204.229 428.409 203.402 427.876 202.599 427.299C201.797 426.721 201.027 426.112 200.283 425.463C199.545 424.809 198.839 424.122 198.165 423.403C197.491 422.685 196.849 421.934 196.252 421.151C195.649 420.368 195.091 419.553 194.571 418.718C194.051 417.878 193.57 417.018 193.133 416.132C192.697 415.246 192.305 414.348 191.959 413.424C191.612 412.5 191.311 411.563 191.06 410.606C190.804 409.657 190.598 408.694 190.438 407.718C190.277 406.743 190.162 405.768 190.098 404.786C190.034 403.797 190.021 402.815 190.053 401.827C190.085 400.845 190.168 399.863 190.297 398.881C190.425 397.906 190.605 396.937 190.829 395.974L220.421 269.527L222.27 261.626L224.265 253.052L226.114 245.139L228.116 236.585L229.964 228.678L231.967 220.104L233.815 212.197L239.982 185.846L241.837 177.972L243.839 169.411L245.694 161.504L247.696 152.943L249.545 145.036L251.547 136.475L253.395 128.569L262.553 89.485L266.661 71.9199L275.434 34.4342L275.491 34.1775L280.818 11.4204C280.934 10.9198 281.068 10.4321 281.203 9.94434L338.083 14.5779L419.132 21.1817L431.402 22.1828L436.511 22.6L539.662 46.7176L546.6 48.3413C548.333 52.6989 549.006 57.2041 548.621 61.8762Z" fill="#595958" fill-opacity="0.15"></path></g><path d="M540.318 55.8943L508.197 449.67C508.114 450.652 507.985 451.628 507.812 452.597C507.639 453.559 507.414 454.522 507.145 455.465C506.875 456.409 506.561 457.346 506.195 458.257C505.835 459.175 505.431 460.067 504.982 460.946C504.533 461.819 504.038 462.672 503.506 463.5C502.973 464.322 502.402 465.124 501.792 465.894C501.176 466.664 500.528 467.402 499.848 468.115C499.161 468.821 498.442 469.488 497.698 470.13C496.947 470.765 496.164 471.362 495.355 471.927C494.547 472.485 493.712 473.005 492.852 473.48C491.992 473.961 491.113 474.398 490.208 474.789C489.303 475.181 488.386 475.527 487.449 475.829C486.512 476.13 485.562 476.381 484.599 476.592C483.637 476.798 482.668 476.958 481.692 477.074C480.71 477.183 479.728 477.253 478.746 477.266C477.764 477.286 476.783 477.253 475.801 477.17L446.716 474.802L442.345 474.442L368.388 468.416L188.584 453.765C187.608 453.681 186.633 453.553 185.664 453.38C184.695 453.2 183.738 452.982 182.789 452.712C181.845 452.443 180.915 452.122 179.997 451.762C179.079 451.403 178.187 450.999 177.308 450.549C176.435 450.1 175.582 449.606 174.754 449.073C173.926 448.541 173.13 447.97 172.36 447.36C171.583 446.75 170.845 446.102 170.139 445.415C169.433 444.735 168.76 444.016 168.124 443.265C167.483 442.515 166.886 441.738 166.327 440.929C165.769 440.121 165.249 439.286 164.768 438.426C164.286 437.566 163.857 436.687 163.465 435.782C163.074 434.878 162.727 433.96 162.425 433.023C162.124 432.086 161.867 431.136 161.655 430.173C161.45 429.217 161.289 428.248 161.174 427.266C161.065 426.291 161.001 425.309 160.981 424.327C160.969 423.345 160.994 422.363 161.078 421.381L193.089 28.8823L193.108 28.6192L193.192 27.5988C193.275 26.6169 193.404 25.6414 193.577 24.6787C193.75 23.7097 193.975 22.7534 194.244 21.8036C194.514 20.8602 194.828 19.9296 195.194 19.0119C195.553 18.1006 195.958 17.2021 196.407 16.3293C196.856 15.4501 197.35 14.603 197.883 13.7751C198.416 12.9472 198.987 12.145 199.597 11.3749C200.213 10.6048 200.861 9.86672 201.541 9.16078C202.228 8.44842 202.947 7.78098 203.697 7.14563C204.442 6.50386 205.225 5.90702 206.033 5.34868C206.842 4.78392 207.676 4.27051 208.536 3.78918C209.396 3.30786 210.282 2.87787 211.18 2.48639C212.085 2.09491 213.003 1.74836 213.94 1.44673C214.877 1.1451 215.827 0.88839 216.79 0.683025C217.752 0.47124 218.721 0.310799 219.703 0.201699C220.679 0.0861797 221.661 0.0220041 222.642 0.00275069C223.631 -0.0100855 224.613 0.0220037 225.595 0.0990159L512.805 23.5107C513.787 23.5877 514.762 23.7161 515.731 23.8894C516.7 24.0626 517.657 24.2872 518.607 24.5568C519.55 24.8263 520.487 25.1408 521.398 25.5002C522.316 25.8596 523.214 26.2639 524.087 26.7131C524.966 27.1624 525.82 27.6565 526.648 28.1892C527.476 28.7219 528.272 29.293 529.042 29.9027C529.818 30.5124 530.556 31.1606 531.262 31.8473C531.975 32.5275 532.642 33.2463 533.284 33.9972C533.919 34.7481 534.516 35.5246 535.081 36.3396C535.639 37.1483 536.159 37.9826 536.64 38.8425C537.115 39.7025 537.552 40.5817 537.943 41.4866C538.334 42.3851 538.681 43.3092 538.983 44.2462C539.284 45.1832 539.535 46.133 539.746 47.0957C539.952 48.0519 540.112 49.0274 540.228 50.0029C540.337 50.9784 540.401 51.9603 540.42 52.9422C540.433 53.9305 540.401 54.9124 540.318 55.8943Z" fill="#F5F6F1"></path><path d="M290.708 42.9883L441.6 55.2846L440.15 73.0679L289.258 60.7717L290.708 42.9883Z" fill="#DADBD6"></path><path d="M235.785 69.3916L491.517 90.2298L490.066 108.013L234.335 87.175L235.785 69.3916Z" fill="#DADBD6"></path><path d="M231.107 126.739L429.689 142.918L429.035 150.921L230.459 134.742L231.107 126.739Z" fill="#DADBD6"></path><path d="M229.753 143.412L485.484 164.244L484.83 172.247L229.098 151.409L229.753 143.412Z" fill="#DADBD6"></path><path d="M228.393 160.08L484.124 180.918L483.47 188.921L227.738 168.083L228.393 160.08Z" fill="#DADBD6"></path><path d="M227.032 176.753L425.614 192.932L424.959 200.935L226.377 184.756L227.032 176.753Z" fill="#DADBD6"></path><path d="M224.201 211.427L422.784 227.606L422.129 235.609L223.553 219.43L224.201 211.427Z" fill="#DADBD6"></path><path d="M222.848 228.101L478.58 248.932L477.925 256.935L222.193 236.097L222.848 228.101Z" fill="#DADBD6"></path><path d="M221.487 244.768L477.219 265.606L476.564 273.609L220.832 252.77L221.487 244.768Z" fill="#DADBD6"></path><path d="M220.126 261.44L418.708 277.619L418.054 285.622L219.471 269.443L220.126 261.44Z" fill="#DADBD6"></path><path d="M208.292 406.582L317.701 415.496L317.245 421.054L207.837 412.14L208.292 406.582Z" fill="#DADBD6"></path><path d="M210.121 384.133L359.338 396.294L358.196 410.291L208.979 398.136L210.121 384.133Z" fill="#DADBD6"></path><path d="M312.734 375.02H312.644L292.935 373.454C292.768 373.441 292.608 373.396 292.467 373.307C292.319 373.223 292.197 373.114 292.101 372.973C292.011 372.832 291.947 372.684 291.921 372.517C291.896 372.35 291.908 372.183 291.953 372.023C292.178 371.343 292.178 370.662 291.953 369.982C291.729 369.302 291.324 368.756 290.734 368.346C290.15 367.935 289.502 367.736 288.783 367.749C288.064 367.768 287.422 367.993 286.858 368.435C286.627 368.596 286.421 368.782 286.229 368.994C286.049 369.79 285.715 370.528 285.247 371.202C285.099 371.407 284.907 371.548 284.663 371.625C284.419 371.702 284.175 371.696 283.938 371.599C283.7 371.51 283.514 371.356 283.379 371.137C283.245 370.919 283.193 370.682 283.225 370.431C283.328 369.559 283.636 368.769 284.137 368.05C284.323 366.722 283.912 365.323 282.956 364.457C281.236 362.897 278.329 363.301 276.474 364.469C274.26 365.856 272.694 368.269 271.301 370.399C271.141 370.656 270.916 370.823 270.621 370.893C270.326 370.97 270.043 370.926 269.787 370.772C269.524 370.618 269.35 370.393 269.273 370.098C269.196 369.802 269.235 369.52 269.389 369.257C270.82 366.613 272.45 363.609 272.707 360.51C272.919 357.898 271.93 354.541 269.209 353.348C267.027 352.391 264.383 353.072 261.643 353.919C260.879 354.163 260.109 354.394 259.345 354.631C257.041 358.687 254.307 362.429 251.124 365.836C249.712 367.338 247.973 368.975 245.765 369.725C244.86 370.04 243.93 370.149 242.974 370.046C242.024 369.95 241.132 369.655 240.31 369.161C239.643 368.756 239.091 368.224 238.667 367.569C238.237 366.914 237.974 366.202 237.878 365.426C237.596 363.366 238.449 361.151 240.163 359.489C241.421 358.27 243.096 357.339 245.419 356.563C248.673 355.485 252.01 354.483 255.238 353.521L257.824 352.751C261.444 346.057 263.549 338.375 259.974 332.554C258.023 329.384 254.063 327.362 249.378 327.157C239.303 326.708 230.985 333.934 226.576 340.839C221.41 348.926 219.267 358.488 217.2 367.736C217.13 368.038 216.969 368.269 216.706 368.435C216.449 368.602 216.167 368.647 215.865 368.583C215.564 368.513 215.333 368.352 215.166 368.089C214.999 367.826 214.954 367.55 215.018 367.248C217.033 358.257 219.318 348.053 224.696 339.639C229.445 332.208 238.462 324.442 249.488 324.93C254.911 325.168 259.544 327.581 261.88 331.386C264.845 336.199 264.755 342.662 261.617 350.049C261.367 350.639 261.097 351.236 260.802 351.839L261.001 351.782C263.388 351.044 267.001 349.92 270.127 351.294C273.843 352.93 275.235 357.314 274.953 360.689C274.876 361.504 274.741 362.307 274.529 363.102C274.78 362.916 275.036 362.743 275.299 362.57C277.918 360.927 281.91 360.484 284.47 362.794C285.459 363.712 286.068 364.829 286.306 366.157C287.435 365.548 288.629 365.368 289.893 365.612C291.472 365.965 292.666 366.844 293.474 368.249C294.046 369.193 294.328 370.213 294.315 371.317L312.83 372.78C313.138 372.8 313.388 372.921 313.594 373.146C313.799 373.371 313.895 373.634 313.883 373.935C313.87 374.243 313.754 374.5 313.536 374.706C313.311 374.911 313.048 375.014 312.747 375.007L312.734 375.02ZM256.181 355.568L255.88 355.658C252.664 356.621 249.34 357.615 246.118 358.681C244.129 359.342 242.73 360.105 241.729 361.087C240.535 362.236 239.912 363.783 240.092 365.118C240.214 366.061 240.676 366.773 241.491 367.261C242.621 367.916 243.808 368.038 245.047 367.614C246.786 367.017 248.21 365.676 249.494 364.309C252.003 361.607 254.23 358.7 256.188 355.574L256.181 355.568Z" fill="#595958"></path><path d="M455.122 363.519C453.775 361.716 452.292 360.047 450.662 358.501C447.415 355.42 443.75 352.969 439.669 351.146C435.581 349.323 431.306 348.232 426.846 347.879C405.231 346.115 386.28 362.204 384.522 383.812C382.757 405.42 398.852 424.359 420.467 426.117C422.335 426.271 424.215 426.291 426.089 426.175C427.963 426.06 429.824 425.809 431.659 425.424C433.501 425.039 435.305 424.526 437.07 423.884C438.841 423.242 440.548 422.479 442.204 421.593C443.859 420.707 445.445 419.706 446.959 418.589C448.474 417.473 449.898 416.26 451.233 414.938C452.575 413.616 453.813 412.21 454.943 410.715C456.079 409.213 457.106 407.647 458.017 406.004C458.922 404.361 459.711 402.661 460.379 400.902C461.046 399.144 461.579 397.347 461.989 395.518C462.394 393.682 462.67 391.828 462.811 389.954C462.952 388.08 462.958 386.206 462.837 384.332C462.708 382.458 462.445 380.603 462.054 378.768C461.656 376.932 461.136 375.129 460.481 373.37C459.827 371.606 459.05 369.898 458.158 368.249C457.26 366.6 456.246 365.021 455.122 363.513V363.519ZM456.047 389.639C455.899 391.5 455.591 393.336 455.122 395.146C454.949 395.813 454.757 396.481 454.538 397.142C454.327 397.803 454.089 398.451 453.833 399.093C453.576 399.741 453.293 400.376 452.998 400.999C452.703 401.627 452.382 402.244 452.048 402.853C451.708 403.457 451.355 404.053 450.977 404.637C450.604 405.221 450.213 405.793 449.802 406.351C449.392 406.909 448.962 407.455 448.512 407.981C448.069 408.514 447.607 409.034 447.126 409.534C446.651 410.035 446.157 410.522 445.644 410.991C445.137 411.459 444.61 411.915 444.071 412.351C443.532 412.788 442.98 413.211 442.415 413.609C441.851 414.014 441.273 414.399 440.683 414.758C440.092 415.124 439.495 415.47 438.879 415.798C438.27 416.125 437.647 416.433 437.018 416.722C436.383 417.011 435.748 417.274 435.099 417.524C434.451 417.768 433.79 417.993 433.129 418.198C432.468 418.403 431.801 418.589 431.127 418.75C430.447 418.91 429.773 419.051 429.086 419.173C428.406 419.289 427.719 419.385 427.026 419.462C426.339 419.539 425.646 419.591 424.953 419.623C424.26 419.655 423.567 419.661 422.874 419.648C422.181 419.636 421.487 419.603 420.794 419.546C420.101 419.488 419.415 419.411 418.728 419.308C418.041 419.206 417.361 419.084 416.681 418.942C416 418.795 415.326 418.628 414.659 418.442C413.992 418.256 413.331 418.05 412.676 417.819C412.021 417.588 411.373 417.338 410.738 417.068C410.096 416.799 409.467 416.51 408.851 416.196C408.229 415.888 407.619 415.56 407.016 415.207C406.419 414.861 405.828 414.495 405.257 414.103C404.68 413.718 404.115 413.314 403.569 412.891C403.017 412.467 402.478 412.031 401.958 411.575C401.439 411.113 400.932 410.644 400.437 410.157C399.943 409.662 399.468 409.162 399.006 408.642C398.551 408.122 398.108 407.59 397.678 407.044C397.254 406.492 396.85 405.934 396.458 405.363C396.067 404.785 395.695 404.201 395.342 403.604C394.989 403.007 394.655 402.398 394.341 401.782C394.026 401.165 393.731 400.536 393.461 399.901C393.185 399.259 392.929 398.618 392.698 397.963C392.467 397.308 392.255 396.654 392.062 395.986C391.87 395.319 391.703 394.645 391.555 393.971C391.408 393.291 391.279 392.611 391.177 391.924C391.068 391.237 390.984 390.551 390.926 389.857C390.862 389.171 390.824 388.478 390.811 387.785C390.792 387.091 390.798 386.398 390.824 385.705C390.849 385.012 390.901 384.319 390.971 383.632C391.042 382.939 391.138 382.253 391.254 381.572C391.369 380.886 391.504 380.205 391.664 379.531C391.819 378.858 391.998 378.184 392.204 377.523C392.403 376.862 392.627 376.201 392.871 375.552C393.108 374.904 393.372 374.263 393.66 373.627C393.943 372.998 394.244 372.376 394.572 371.76C394.893 371.15 395.233 370.547 395.599 369.95C395.958 369.359 396.337 368.782 396.741 368.217C397.139 367.646 397.556 367.094 397.986 366.548C398.422 366.009 398.872 365.483 399.34 364.97C399.809 364.463 400.29 363.962 400.79 363.481C401.291 362.999 401.804 362.537 402.331 362.088C402.863 361.639 403.402 361.209 403.961 360.792C404.519 360.375 405.084 359.983 405.668 359.605C406.252 359.226 406.842 358.867 407.446 358.526C408.055 358.186 408.665 357.865 409.294 357.564C409.916 357.262 410.552 356.986 411.193 356.723C411.835 356.46 412.49 356.222 413.144 356.004C413.805 355.786 414.466 355.587 415.14 355.407C415.808 355.234 416.488 355.074 417.168 354.939C417.849 354.811 418.529 354.695 419.222 354.605C419.909 354.515 420.595 354.445 421.288 354.4C421.982 354.355 422.675 354.329 423.368 354.329C424.061 354.323 424.754 354.342 425.447 354.387C426.14 354.425 426.833 354.49 427.52 354.579C428.207 354.663 428.893 354.772 429.574 354.9C430.254 355.029 430.934 355.183 431.602 355.356C432.276 355.523 432.943 355.722 433.604 355.934C434.259 356.152 434.913 356.383 435.561 356.64C436.203 356.896 436.839 357.172 437.467 357.467C438.09 357.769 438.712 358.084 439.316 358.417C439.925 358.757 440.516 359.11 441.106 359.483C441.69 359.861 442.261 360.253 442.82 360.663C443.378 361.074 443.924 361.498 444.456 361.947C444.989 362.39 445.502 362.852 446.009 363.327C446.51 363.808 446.998 364.302 447.466 364.809C447.941 365.316 448.39 365.843 448.833 366.382C449.27 366.921 449.687 367.473 450.091 368.037C450.495 368.602 450.88 369.173 451.246 369.764C451.612 370.354 451.959 370.957 452.286 371.567C452.613 372.177 452.921 372.799 453.21 373.428C453.492 374.064 453.762 374.699 454.012 375.347C454.256 375.995 454.487 376.65 454.693 377.311C454.898 377.978 455.078 378.646 455.244 379.32C455.405 379.994 455.546 380.667 455.668 381.354C455.784 382.034 455.886 382.721 455.963 383.414C456.034 384.101 456.092 384.794 456.124 385.487C456.156 386.18 456.162 386.873 456.149 387.566C456.143 388.259 456.104 388.946 456.047 389.639Z" fill="#595958"></path><path d="M450.663 377.087C450.258 375.99 449.79 374.911 449.251 373.865C448.718 372.826 448.121 371.812 447.467 370.843C446.806 369.867 446.093 368.943 445.323 368.057C444.553 367.172 443.732 366.337 442.859 365.548C441.986 364.765 441.068 364.04 440.106 363.366C439.143 362.692 438.142 362.076 437.109 361.531C436.069 360.979 435.004 360.491 433.906 360.067C432.809 359.65 431.692 359.297 430.556 359.015C429.414 358.726 428.265 358.514 427.097 358.367C425.929 358.225 424.761 358.155 423.586 358.148C422.412 358.148 421.244 358.219 420.076 358.36C418.914 358.501 417.759 358.713 416.623 358.996C415.481 359.278 414.364 359.631 413.267 360.048C412.169 360.465 411.098 360.947 410.064 361.498C409.025 362.044 408.024 362.654 407.061 363.328C406.098 364.001 405.181 364.727 404.301 365.51C403.429 366.292 402.607 367.127 401.831 368.006C401.06 368.892 400.342 369.816 399.681 370.791C399.02 371.76 398.423 372.768 397.89 373.814C397.351 374.854 396.883 375.925 396.472 377.029C396.067 378.133 395.734 379.25 395.464 380.392C395.195 381.534 394.996 382.69 394.867 383.858C394.739 385.026 394.681 386.194 394.701 387.368C394.713 388.543 394.797 389.711 394.957 390.872C395.118 392.034 395.342 393.189 395.638 394.318C395.939 395.454 396.305 396.571 396.741 397.662C397.171 398.753 397.672 399.812 398.237 400.839C398.795 401.872 399.424 402.86 400.104 403.817C400.791 404.766 401.529 405.678 402.325 406.538C403.121 407.404 403.968 408.213 404.86 408.976C405.758 409.734 406.695 410.44 407.671 411.088C408.653 411.73 409.673 412.314 410.719 412.84C411.772 413.36 412.856 413.815 413.96 414.207C415.07 414.598 416.193 414.919 417.342 415.17C418.491 415.42 419.646 415.606 420.814 415.715C421.982 415.824 423.157 415.869 424.331 415.837C425.505 415.805 426.667 415.702 427.829 415.529C428.99 415.356 430.139 415.112 431.268 414.797C432.404 414.483 433.508 414.104 434.593 413.655C435.677 413.206 436.736 412.692 437.757 412.115C438.777 411.537 439.759 410.895 440.702 410.202C441.652 409.503 442.551 408.752 443.398 407.943C444.251 407.135 445.054 406.281 445.804 405.376C446.549 404.471 447.242 403.528 447.871 402.54C448.506 401.545 449.078 400.524 449.585 399.465C450.092 398.407 450.528 397.322 450.907 396.212C451.279 395.095 451.587 393.965 451.824 392.817C452.062 391.668 452.229 390.506 452.318 389.338C452.665 385.135 452.113 381.053 450.663 377.087ZM446.844 388.896C446.716 390.417 446.446 391.912 446.029 393.375C445.606 394.845 445.054 396.257 444.354 397.617C443.655 398.978 442.833 400.255 441.883 401.449C440.933 402.642 439.881 403.74 438.713 404.728C437.551 405.716 436.3 406.576 434.965 407.321C433.63 408.065 432.238 408.668 430.781 409.137C429.33 409.605 427.841 409.926 426.327 410.1C424.806 410.273 423.291 410.298 421.764 410.177C420.243 410.055 418.748 409.785 417.278 409.362C415.808 408.944 414.396 408.386 413.036 407.693C411.675 406.993 410.398 406.172 409.204 405.222C408.004 404.272 406.913 403.22 405.925 402.052C404.937 400.89 404.07 399.645 403.326 398.31C402.581 396.975 401.978 395.583 401.51 394.126C401.041 392.676 400.72 391.187 400.547 389.672C400.367 388.158 400.342 386.637 400.47 385.116C400.592 383.595 400.861 382.099 401.279 380.63C401.702 379.16 402.261 377.748 402.954 376.387C403.653 375.033 404.475 373.756 405.424 372.556C406.374 371.362 407.427 370.271 408.595 369.283C409.756 368.295 411.008 367.428 412.343 366.684C413.678 365.939 415.07 365.336 416.521 364.868C417.977 364.399 419.46 364.078 420.981 363.905C422.495 363.725 424.016 363.7 425.537 363.822C427.058 363.95 428.56 364.22 430.03 364.637C431.499 365.054 432.911 365.612 434.272 366.305C435.632 367.005 436.91 367.826 438.11 368.776C439.303 369.726 440.401 370.778 441.389 371.946C442.377 373.108 443.244 374.359 443.988 375.694C444.726 377.029 445.336 378.422 445.804 379.872C446.267 381.329 446.594 382.812 446.767 384.333C446.94 385.847 446.966 387.368 446.844 388.889V388.896Z" fill="#595958"></path><path d="M412.388 386.084L405.116 385.487C405.219 384.274 405.437 383.081 405.771 381.906C406.105 380.732 406.554 379.602 407.112 378.518C407.671 377.433 408.325 376.413 409.089 375.456C409.846 374.5 410.687 373.627 411.617 372.838C412.548 372.049 413.549 371.356 414.614 370.759C415.68 370.168 416.797 369.68 417.958 369.308C419.12 368.936 420.307 368.679 421.52 368.538C422.733 368.397 423.952 368.371 425.165 368.468L424.575 375.739C423.837 375.681 423.099 375.694 422.361 375.777C421.623 375.861 420.897 376.021 420.191 376.246C419.486 376.477 418.812 376.772 418.163 377.131C417.515 377.491 416.906 377.908 416.341 378.389C415.776 378.871 415.263 379.403 414.801 379.981C414.339 380.565 413.941 381.181 413.601 381.842C413.26 382.503 412.991 383.19 412.785 383.902C412.58 384.614 412.445 385.34 412.388 386.084Z" fill="#595958"></path><path d="M422.142 405.53L422.739 398.265C423.477 398.323 424.215 398.31 424.953 398.227C425.691 398.137 426.41 397.983 427.116 397.752C427.822 397.527 428.502 397.232 429.15 396.873C429.798 396.513 430.402 396.09 430.973 395.608C431.538 395.127 432.051 394.601 432.513 394.017C432.975 393.439 433.373 392.817 433.713 392.156C434.053 391.495 434.323 390.808 434.528 390.096C434.727 389.383 434.862 388.658 434.926 387.92L442.197 388.51C442.095 389.723 441.876 390.923 441.543 392.091C441.203 393.266 440.76 394.395 440.201 395.48C439.643 396.571 438.982 397.591 438.225 398.548C437.468 399.504 436.62 400.377 435.69 401.166C434.759 401.955 433.765 402.648 432.693 403.239C431.627 403.836 430.511 404.317 429.349 404.689C428.188 405.068 427 405.325 425.787 405.466C424.574 405.607 423.361 405.626 422.142 405.53Z" fill="#595958"></path><path d="M450.663 114.091V453.669C450.663 457.539 449.95 461.268 448.513 464.862C447.069 468.449 445.015 471.645 442.339 474.443L442.249 474.54C440.497 476.356 438.552 477.935 436.402 479.263L403.217 476.561L368.382 468.417L188.584 453.759C187.602 453.682 186.626 453.554 185.657 453.374C184.688 453.201 183.732 452.976 182.789 452.707C181.839 452.437 180.908 452.123 179.997 451.763C179.079 451.397 178.181 450.993 177.308 450.544C176.435 450.095 175.582 449.607 174.754 449.074C173.926 448.542 173.13 447.97 172.354 447.354C171.583 446.745 170.845 446.096 170.139 445.416C169.433 444.73 168.76 444.011 168.124 443.266C167.483 442.515 166.886 441.732 166.327 440.924C165.763 440.115 165.249 439.281 164.768 438.421C164.286 437.561 163.857 436.682 163.465 435.783C163.074 434.878 162.727 433.961 162.425 433.024C162.124 432.087 161.867 431.137 161.655 430.174C161.45 429.212 161.289 428.243 161.174 427.267C161.065 426.292 161.001 425.31 160.981 424.328C160.969 423.346 160.994 422.364 161.078 421.382L193.089 28.8832L193.108 28.6201H218.676C221.802 28.6201 224.85 29.095 227.828 30.0384C230.806 30.9882 233.565 32.368 236.113 34.1778H417.862C419.479 34.1778 421.083 34.3319 422.669 34.6463C424.26 34.9672 425.8 35.4293 427.296 36.0518C428.798 36.6679 430.216 37.4316 431.564 38.3301C432.911 39.2285 434.156 40.249 435.299 41.3977C436.447 42.5401 437.468 43.7851 438.366 45.1328C439.265 46.4741 440.028 47.8988 440.645 49.3941C441.267 50.8895 441.736 52.4297 442.05 54.0149C442.365 55.6065 442.525 57.2109 442.525 58.8281V93.5093C445.561 96.7438 447.775 100.472 449.161 104.689L449.193 104.792C450.175 107.814 450.663 110.914 450.663 114.091Z" fill="#595958" fill-opacity="0.1"></path><path d="M433.598 59.0913V383.319C433.598 384.936 433.444 386.54 433.129 388.126C432.815 389.717 432.346 391.257 431.724 392.753C431.107 394.248 430.344 395.673 429.445 397.014C428.547 398.362 427.526 399.607 426.378 400.749C425.235 401.898 423.99 402.918 422.643 403.817C421.295 404.715 419.87 405.479 418.375 406.095C416.879 406.718 415.339 407.18 413.748 407.501C412.162 407.815 410.558 407.969 408.934 407.969H172.449C170.826 407.969 169.228 407.815 167.636 407.494C166.051 407.18 164.504 406.711 163.009 406.095C161.514 405.473 160.089 404.715 158.748 403.817C157.4 402.918 156.155 401.892 155.006 400.749C153.864 399.607 152.843 398.362 151.938 397.014C151.04 395.666 150.283 394.248 149.66 392.753C149.044 391.257 148.576 389.717 148.261 388.126C147.94 386.54 147.786 384.936 147.786 383.319V59.0913C147.786 57.4676 147.94 55.8696 148.255 54.278C148.569 52.6929 149.038 51.1462 149.66 49.6509C150.276 48.1556 151.04 46.7373 151.938 45.3895C152.837 44.0418 153.857 42.7968 155.006 41.6545C156.148 40.5057 157.394 39.4853 158.741 38.5868C160.089 37.6883 161.514 36.931 163.009 36.3085C164.504 35.6924 166.045 35.2239 167.636 34.9095C169.221 34.595 170.826 34.4346 172.449 34.4346H408.934C410.558 34.4346 412.162 34.595 413.748 34.9095C415.339 35.2239 416.879 35.6924 418.375 36.3149C419.87 36.931 421.295 37.6883 422.636 38.5932C423.984 39.4917 425.229 40.5121 426.378 41.6545C427.52 42.8032 428.547 44.0483 429.445 45.3895C430.344 46.7373 431.101 48.162 431.724 49.6573C432.34 51.1526 432.808 52.6929 433.129 54.278C433.444 55.8696 433.598 57.4676 433.598 59.0913Z" fill="#F5F6F1"></path><path d="M433.598 77.7732V383.312C433.598 384.93 433.444 386.534 433.129 388.119C432.808 389.711 432.34 391.251 431.724 392.746C431.101 394.242 430.344 395.66 429.445 397.008C428.547 398.355 427.52 399.6 426.378 400.743C425.229 401.885 423.984 402.912 422.636 403.81C421.295 404.709 419.87 405.466 418.375 406.089C416.879 406.705 415.339 407.173 413.748 407.488C412.162 407.809 410.558 407.963 408.934 407.963H172.449C170.832 407.963 169.228 407.809 167.636 407.488C166.051 407.173 164.504 406.705 163.009 406.089C161.514 405.466 160.095 404.709 158.748 403.81C157.4 402.912 156.155 401.892 155.013 400.743C153.864 399.6 152.843 398.355 151.945 397.014C151.04 395.666 150.283 394.248 149.667 392.753C149.044 391.257 148.576 389.711 148.261 388.126C147.94 386.54 147.786 384.936 147.786 383.319V59.0913C147.786 57.4676 147.94 55.8696 148.261 54.278C148.576 52.6929 149.044 51.1526 149.66 49.6573C150.283 48.162 151.04 46.7373 151.938 45.3895C152.843 44.0483 153.864 42.8032 155.006 41.6545C156.155 40.5121 157.4 39.4917 158.748 38.5932C160.089 37.6883 161.514 36.931 163.009 36.3149C164.504 35.6924 166.051 35.2239 167.636 34.9095C169.228 34.595 170.826 34.4346 172.449 34.4346H242.171C242.261 34.6207 242.344 34.8004 242.428 34.9801L251.56 55.061C252.157 56.3702 252.844 57.6281 253.62 58.841C254.397 60.0475 255.25 61.1963 256.194 62.2873C257.137 63.3719 258.151 64.3859 259.236 65.3293C260.32 66.2727 261.469 67.1326 262.682 67.9092C263.888 68.6921 265.146 69.3788 266.456 69.9757C267.765 70.5725 269.106 71.0731 270.486 71.4838C271.866 71.8881 273.271 72.1898 274.696 72.3951C276.121 72.6005 277.552 72.7032 278.989 72.7032H416.854C419.838 72.6968 422.752 73.1268 425.608 73.9931C428.457 74.8531 431.12 76.111 433.598 77.7732Z" fill="#595958" fill-opacity="0.15"></path><path d="M441.735 114.354V453.932C441.735 454.914 441.69 455.902 441.594 456.884C441.491 457.866 441.35 458.835 441.157 459.804C440.965 460.773 440.727 461.73 440.439 462.673C440.15 463.616 439.822 464.541 439.444 465.452C439.065 466.363 438.642 467.255 438.18 468.128C437.711 468.994 437.204 469.842 436.659 470.663C436.113 471.478 435.523 472.274 434.9 473.038C434.271 473.795 433.61 474.526 432.911 475.226C432.211 475.919 431.486 476.587 430.722 477.209C429.958 477.838 429.169 478.422 428.348 478.967C427.526 479.519 426.679 480.026 425.813 480.488C424.94 480.957 424.048 481.374 423.136 481.753C422.225 482.131 421.295 482.459 420.351 482.748C419.408 483.036 418.452 483.274 417.482 483.466C416.52 483.659 415.544 483.8 414.562 483.903C413.581 483.999 412.592 484.044 411.61 484.044H123.585C122.603 484.044 121.615 483.999 120.633 483.903C119.651 483.8 118.675 483.659 117.713 483.466C116.744 483.274 115.787 483.036 114.844 482.748C113.901 482.459 112.97 482.131 112.059 481.753C111.147 481.374 110.255 480.957 109.383 480.488C108.516 480.026 107.669 479.519 106.848 478.967C106.026 478.422 105.237 477.838 104.473 477.209C103.709 476.587 102.984 475.919 102.285 475.226C101.585 474.526 100.924 473.795 100.295 473.038C99.6726 472.274 99.0822 471.478 98.5367 470.663C97.9912 469.842 97.4842 468.994 97.0157 468.128C96.5536 467.255 96.1301 466.363 95.7514 465.452C95.3728 464.541 95.0455 463.616 94.7567 462.673C94.4679 461.73 94.2304 460.773 94.0379 459.804C93.8454 458.835 93.6978 457.866 93.6015 456.884C93.5053 455.902 93.4603 454.914 93.4603 453.932V58.9946C93.4603 58.4876 93.4732 57.9742 93.4988 57.4672C93.5951 55.5612 93.8711 53.6744 94.3267 51.8197C94.7824 49.9585 95.4113 48.1616 96.2135 46.4224C97.0093 44.6832 97.9655 43.0339 99.0822 41.4808C100.192 39.9213 101.444 38.4837 102.83 37.1681C104.216 35.8525 105.718 34.6716 107.329 33.6448C108.94 32.6115 110.634 31.7387 112.412 31.0264C114.189 30.3204 116.018 29.7814 117.899 29.422C119.779 29.0626 121.672 28.8829 123.585 28.8829H209.749C212.874 28.8765 215.929 29.3514 218.907 30.3012C221.884 31.251 224.644 32.6308 227.192 34.4342C228.302 35.2235 229.355 36.0835 230.349 37.0141C233.257 39.7352 235.535 42.9055 237.178 46.5251L246.31 66.5996C246.907 67.9088 247.594 69.1666 248.37 70.3796C249.147 71.5925 250.007 72.7413 250.944 73.8259C251.887 74.9169 252.901 75.9309 253.986 76.8743C255.077 77.8177 256.219 78.6776 257.432 79.4542C258.639 80.2307 259.903 80.9174 261.206 81.5207C262.515 82.1175 263.863 82.6181 265.242 83.0224C266.622 83.4267 268.021 83.7348 269.446 83.9401C270.871 84.1455 272.302 84.2482 273.739 84.2482H411.61C412.592 84.2482 413.581 84.2931 414.562 84.3894C415.544 84.4856 416.52 84.6333 417.482 84.8258C418.452 85.0183 419.408 85.2558 420.351 85.5446C421.295 85.8269 422.225 86.1607 423.136 86.5393C424.048 86.9179 424.94 87.3351 425.813 87.8036C426.679 88.2657 427.526 88.7727 428.348 89.3182C429.169 89.8701 429.958 90.4541 430.722 91.083C431.486 91.7055 432.211 92.3666 432.911 93.0661C433.61 93.7656 434.271 94.4908 434.9 95.2545C435.523 96.0182 436.113 96.8076 436.659 97.6291C437.204 98.4505 437.711 99.2912 438.18 100.164C438.642 101.037 439.065 101.922 439.444 102.834C439.822 103.745 440.15 104.676 440.439 105.619C440.727 106.562 440.965 107.519 441.157 108.488C441.35 109.45 441.491 110.426 441.594 111.408C441.69 112.39 441.735 113.372 441.735 114.36V114.354Z" fill="#0C6BB1"></path><path d="M427.135 479.744C422.36 482.625 417.181 484.056 411.611 484.05H123.585C121.037 484.05 118.528 483.729 116.057 483.094C113.587 482.458 111.231 481.521 108.998 480.289C106.765 479.051 104.724 477.555 102.875 475.803C101.021 474.051 99.4163 472.094 98.0621 469.931L93.4607 377.074L81.4404 134.351C81.4083 133.837 81.4019 133.33 81.4019 132.823L93.4543 130.41L137.345 121.612L147.786 119.526L217.072 105.638L229.143 103.212L234.168 102.204L347.107 96.6211C349.969 100.324 351.862 104.476 352.773 109.071L357.856 134.396L360.16 145.838L412.689 407.686L424.074 464.495L427.135 479.744Z" fill="#595958" fill-opacity="0.15"></path><path d="M19.2468 139.882L313.741 80.8525C315.288 80.538 316.841 80.384 318.42 80.384C319.992 80.3776 321.552 80.5316 323.092 80.8332C324.638 81.1413 326.134 81.5905 327.591 82.1938C329.041 82.7906 330.427 83.5286 331.736 84.395C333.046 85.2678 334.252 86.2626 335.369 87.3728C336.485 88.4831 337.48 89.6896 338.353 90.9924C339.232 92.3016 339.97 93.6814 340.574 95.1318C341.177 96.5822 341.639 98.0775 341.947 99.6242L422.065 498.945C422.373 500.485 422.527 502.038 422.534 503.611C422.534 505.183 422.386 506.742 422.078 508.289C421.776 509.829 421.321 511.325 420.724 512.781C420.121 514.232 419.389 515.618 418.516 516.927C417.643 518.23 416.649 519.443 415.538 520.56C414.428 521.67 413.222 522.665 411.912 523.544C410.61 524.417 409.23 525.155 407.779 525.764C406.323 526.368 404.827 526.823 403.287 527.131L108.786 586.168C107.246 586.476 105.687 586.63 104.114 586.63C102.542 586.636 100.982 586.482 99.4357 586.18C97.8955 585.872 96.3937 585.423 94.9433 584.826C93.4865 584.223 92.1067 583.491 90.7975 582.619C89.4883 581.746 88.2754 580.758 87.1587 579.647C86.0484 578.537 85.0537 577.324 84.1745 576.021C83.3017 574.712 82.5572 573.339 81.9539 571.882C81.3507 570.431 80.895 568.936 80.587 567.396L0.468683 168.075C0.154217 166.528 0.000192705 164.975 0.000192705 163.403C-0.00622621 161.831 0.147799 160.271 0.44943 158.731C0.757479 157.184 1.20672 155.689 1.80998 154.232C2.40682 152.782 3.14486 151.402 4.01766 150.093C4.88405 148.784 5.87878 147.571 6.98904 146.454C8.0993 145.344 9.30583 144.349 10.615 143.476C11.9242 142.597 13.304 141.859 14.7544 141.256C16.2048 140.652 17.7001 140.19 19.2468 139.882Z" fill="#F5F6F1"></path><path d="M99.6477 161.985L248.089 132.227L251.599 149.721L103.152 179.474L99.6477 161.985Z" fill="#DADBD6"></path><path d="M54.1335 202.495L305.707 152.064L309.217 169.559L57.644 219.989L54.1335 202.495Z" fill="#DADBD6"></path><path d="M65.4543 258.904L260.802 219.75L262.381 227.618L67.0331 266.779L65.4543 258.904Z" fill="#DADBD6"></path><path d="M68.7466 275.303L320.313 224.879L321.892 232.747L70.3253 283.177L68.7466 275.303Z" fill="#DADBD6"></path><path d="M72.0317 291.706L323.605 241.275L325.183 249.15L73.6105 299.58L72.0317 291.706Z" fill="#DADBD6"></path><path d="M75.3239 308.103L270.672 268.949L272.25 276.817L76.9026 315.978L75.3239 308.103Z" fill="#DADBD6"></path><path d="M82.166 342.213L277.514 303.059L279.099 310.927L83.7448 350.087L82.166 342.213Z" fill="#DADBD6"></path><path d="M85.4583 358.617L337.031 308.187L338.61 316.055L87.037 366.485L85.4583 358.617Z" fill="#DADBD6"></path><path d="M88.7505 375.013L340.317 324.583L341.902 332.457L90.3292 382.888L88.7505 375.013Z" fill="#DADBD6"></path><path d="M92.0427 391.418L287.39 352.257L288.969 360.125L93.6215 399.286L92.0427 391.418Z" fill="#DADBD6"></path><path d="M120.691 534.197L228.316 512.621L229.413 518.089L121.782 539.665L120.691 534.197Z" fill="#DADBD6"></path><path d="M116.256 512.115L263.041 482.689L265.807 496.462L119.022 525.887L116.256 512.115Z" fill="#DADBD6"></path><path d="M117.418 495.583C117.123 495.583 116.866 495.486 116.654 495.281C116.436 495.082 116.321 494.832 116.301 494.537C115.756 485.34 115.14 474.905 117.989 465.336C120.498 456.878 127.025 446.93 137.762 444.363C143.037 443.105 148.159 444.151 151.457 447.155C155.642 450.973 157.329 457.192 156.348 465.163C156.271 465.798 156.174 466.453 156.059 467.114L156.232 466.998C158.324 465.631 161.488 463.558 164.877 464.021C168.901 464.566 171.442 468.391 172.103 471.715C172.257 472.518 172.347 473.333 172.366 474.148C172.552 473.904 172.745 473.666 172.957 473.435C175.023 471.131 178.732 469.597 181.832 471.118C183.032 471.728 183.931 472.633 184.521 473.84C185.439 472.941 186.543 472.44 187.82 472.325C189.437 472.235 190.823 472.749 191.991 473.872C192.8 474.623 193.346 475.527 193.634 476.593L211.841 472.903C212.143 472.845 212.419 472.896 212.676 473.069C212.932 473.236 213.093 473.474 213.157 473.775C213.215 474.077 213.163 474.353 212.99 474.61C212.823 474.866 212.586 475.027 212.284 475.091L192.903 479.012C192.742 479.051 192.575 479.044 192.409 479.006C192.248 478.961 192.1 478.89 191.972 478.781C191.844 478.672 191.741 478.544 191.67 478.39C191.6 478.236 191.568 478.075 191.568 477.908C191.593 477.196 191.407 476.541 191.003 475.945C190.599 475.354 190.06 474.943 189.379 474.706C188.706 474.475 188.025 474.462 187.339 474.674C186.652 474.886 186.1 475.284 185.676 475.861C185.503 476.086 185.362 476.317 185.24 476.567C185.278 477.389 185.169 478.184 184.9 478.961C184.816 479.205 184.669 479.397 184.451 479.532C184.239 479.673 184.008 479.731 183.751 479.712C183.494 479.686 183.276 479.59 183.09 479.417C182.898 479.243 182.788 479.031 182.743 478.781C182.609 477.915 182.679 477.068 182.968 476.24C182.776 474.911 181.993 473.679 180.837 473.102C178.745 472.081 176.069 473.268 174.606 474.898C172.867 476.843 172.02 479.596 171.275 482.022C171.185 482.311 171.012 482.529 170.749 482.677C170.486 482.818 170.21 482.856 169.921 482.779C169.632 482.702 169.408 482.536 169.254 482.279C169.093 482.022 169.055 481.746 169.119 481.457C169.767 478.531 170.505 475.181 169.902 472.132C169.388 469.559 167.502 466.607 164.562 466.209C162.201 465.888 159.845 467.274 157.451 468.847C156.778 469.283 156.104 469.726 155.423 470.162C154.332 474.7 152.728 479.044 150.61 483.203C149.667 485.032 148.447 487.086 146.535 488.414C145.752 488.966 144.886 489.325 143.942 489.492C142.999 489.659 142.062 489.621 141.131 489.37C140.38 489.165 139.707 488.806 139.116 488.292C138.526 487.779 138.07 487.163 137.762 486.444C136.928 484.544 137.133 482.176 138.327 480.11C139.206 478.589 140.554 477.235 142.569 475.855C145.399 473.923 148.338 472.043 151.175 470.226L153.447 468.763C155.083 461.331 154.987 453.367 149.949 448.759C147.196 446.25 142.832 445.396 138.275 446.487C128.463 448.836 122.462 458.071 120.12 465.939C117.379 475.142 117.957 484.91 118.522 494.383C118.541 494.684 118.445 494.954 118.239 495.185C118.04 495.416 117.784 495.538 117.476 495.557L117.418 495.583ZM152.657 471.966L152.388 472.139C149.564 473.942 146.644 475.816 143.84 477.729C142.107 478.91 140.977 480.026 140.271 481.252C139.45 482.683 139.27 484.345 139.816 485.577C140.188 486.45 140.83 487.009 141.747 487.252C143.024 487.573 144.199 487.362 145.271 486.611C146.779 485.565 147.78 483.877 148.64 482.215C150.302 478.929 151.643 475.508 152.657 471.966Z" fill="#595958"></path><path d="M314.588 417.55C293.32 421.811 279.541 442.495 283.803 463.751C288.07 485.006 308.761 498.779 330.029 494.517C351.291 490.256 365.07 469.572 360.808 448.316C356.547 427.061 335.85 413.289 314.588 417.55ZM328.694 487.881C327.655 488.093 326.602 488.254 325.543 488.356C324.484 488.465 323.419 488.517 322.354 488.517C321.295 488.517 320.229 488.472 319.17 488.369C318.112 488.266 317.059 488.112 316.013 487.901C314.973 487.695 313.94 487.438 312.92 487.137C311.899 486.829 310.898 486.469 309.916 486.065C308.928 485.661 307.972 485.205 307.028 484.705C306.091 484.204 305.18 483.658 304.294 483.068C303.409 482.484 302.549 481.849 301.727 481.175C300.906 480.501 300.116 479.789 299.359 479.038C298.608 478.287 297.889 477.504 297.216 476.682C296.535 475.861 295.906 475.007 295.309 474.122C294.719 473.236 294.167 472.325 293.667 471.388C293.166 470.451 292.71 469.495 292.3 468.513C291.889 467.524 291.529 466.53 291.221 465.509C290.907 464.495 290.65 463.462 290.438 462.416C290.233 461.376 290.073 460.324 289.97 459.265C289.861 458.206 289.81 457.147 289.803 456.082C289.803 455.016 289.854 453.957 289.957 452.899C290.06 451.84 290.214 450.787 290.419 449.741C290.625 448.701 290.881 447.668 291.189 446.648C291.497 445.634 291.857 444.633 292.261 443.644C292.665 442.662 293.121 441.7 293.622 440.763C294.122 439.826 294.668 438.908 295.258 438.022C295.842 437.137 296.478 436.283 297.151 435.462C297.825 434.64 298.538 433.851 299.288 433.094C300.039 432.343 300.829 431.63 301.65 430.95C302.472 430.276 303.325 429.641 304.211 429.05C305.09 428.454 306.001 427.908 306.945 427.408C307.882 426.901 308.838 426.445 309.82 426.041C310.808 425.63 311.803 425.27 312.823 424.956C313.844 424.648 314.871 424.391 315.917 424.179C316.963 423.968 318.009 423.814 319.074 423.705C320.133 423.602 321.192 423.544 322.257 423.544C323.323 423.544 324.382 423.595 325.44 423.698C326.499 423.801 327.552 423.955 328.598 424.16C329.644 424.366 330.677 424.622 331.691 424.93C332.712 425.238 333.713 425.591 334.695 426.002C335.683 426.406 336.646 426.856 337.583 427.356C338.52 427.857 339.437 428.402 340.323 428.993C341.209 429.583 342.062 430.212 342.884 430.886C343.712 431.56 344.501 432.272 345.252 433.023C346.009 433.774 346.722 434.563 347.395 435.385C348.076 436.206 348.711 437.06 349.301 437.939C349.898 438.825 350.444 439.736 350.944 440.673C351.451 441.61 351.907 442.572 352.311 443.554C352.722 444.536 353.081 445.537 353.396 446.551C353.704 447.572 353.967 448.599 354.172 449.645C354.384 450.691 354.538 451.737 354.647 452.796C354.75 453.855 354.808 454.92 354.808 455.979C354.808 457.044 354.756 458.11 354.654 459.169C354.551 460.228 354.397 461.28 354.192 462.32C353.986 463.366 353.73 464.399 353.422 465.413C353.114 466.433 352.761 467.435 352.356 468.416C351.946 469.405 351.496 470.361 350.996 471.304C350.495 472.241 349.95 473.153 349.359 474.038C348.769 474.924 348.14 475.778 347.46 476.605C346.786 477.427 346.073 478.216 345.322 478.967C344.572 479.724 343.789 480.437 342.967 481.117C342.139 481.791 341.292 482.426 340.407 483.017C339.521 483.607 338.61 484.159 337.673 484.66C336.736 485.167 335.773 485.622 334.791 486.027C333.809 486.437 332.808 486.797 331.788 487.105C330.774 487.419 329.74 487.676 328.694 487.888V487.881Z" fill="#595958"></path><path d="M316.649 427.844C315.731 428.031 314.813 428.262 313.915 428.538C313.016 428.814 312.131 429.128 311.258 429.494C310.391 429.853 309.538 430.258 308.71 430.7C307.882 431.15 307.074 431.631 306.291 432.157C305.508 432.683 304.757 433.242 304.025 433.839C303.3 434.442 302.6 435.071 301.939 435.738C301.272 436.406 300.643 437.105 300.046 437.83C299.449 438.562 298.891 439.319 298.371 440.102C297.845 440.885 297.364 441.694 296.921 442.522C296.478 443.356 296.08 444.203 295.721 445.076C295.361 445.942 295.047 446.828 294.771 447.733C294.501 448.631 294.27 449.549 294.091 450.467C293.911 451.391 293.77 452.321 293.68 453.258C293.59 454.195 293.545 455.139 293.545 456.076C293.551 457.019 293.596 457.956 293.693 458.893C293.782 459.83 293.924 460.761 294.11 461.685C294.296 462.609 294.527 463.52 294.796 464.419C295.072 465.324 295.393 466.209 295.753 467.076C296.119 467.949 296.516 468.796 296.966 469.624C297.408 470.451 297.896 471.26 298.422 472.043C298.942 472.826 299.507 473.577 300.104 474.302C300.701 475.034 301.336 475.727 302.004 476.394C302.671 477.055 303.371 477.691 304.096 478.281C304.827 478.878 305.585 479.436 306.368 479.962C307.151 480.482 307.959 480.964 308.787 481.406C309.621 481.849 310.475 482.254 311.341 482.607C312.214 482.966 313.1 483.287 314.005 483.556C314.903 483.826 315.814 484.057 316.739 484.237C317.663 484.416 318.593 484.557 319.53 484.647C320.474 484.737 321.411 484.782 322.354 484.782C323.297 484.776 324.234 484.731 325.171 484.635C326.108 484.545 327.039 484.403 327.963 484.217C328.887 484.031 329.799 483.807 330.697 483.531C331.602 483.255 332.488 482.934 333.354 482.574C334.227 482.215 335.074 481.811 335.902 481.361C336.736 480.919 337.538 480.437 338.321 479.911C339.104 479.385 339.861 478.827 340.587 478.23C341.312 477.626 342.011 476.997 342.672 476.33C343.34 475.663 343.969 474.963 344.566 474.238C345.162 473.506 345.721 472.749 346.247 471.966C346.767 471.183 347.248 470.374 347.691 469.547C348.134 468.712 348.538 467.865 348.898 466.992C349.257 466.12 349.571 465.234 349.841 464.335C350.117 463.437 350.341 462.519 350.521 461.595C350.707 460.671 350.842 459.747 350.932 458.803C351.022 457.866 351.067 456.929 351.067 455.986C351.067 455.049 351.015 454.106 350.926 453.169C350.829 452.232 350.688 451.308 350.508 450.383C350.322 449.459 350.091 448.548 349.815 447.643C349.539 446.745 349.225 445.859 348.859 444.993C348.5 444.12 348.095 443.273 347.652 442.445C347.203 441.61 346.722 440.808 346.196 440.025C345.669 439.242 345.111 438.491 344.508 437.76C343.911 437.035 343.282 436.341 342.615 435.674C341.947 435.007 341.248 434.378 340.516 433.781C339.791 433.184 339.034 432.626 338.251 432.106C337.461 431.586 336.659 431.105 335.825 430.662C334.99 430.219 334.143 429.815 333.27 429.455C332.398 429.096 331.512 428.781 330.614 428.512C329.709 428.236 328.797 428.011 327.873 427.832C326.949 427.646 326.018 427.511 325.082 427.421C324.145 427.331 323.201 427.286 322.264 427.286C321.321 427.286 320.377 427.337 319.44 427.427C318.503 427.524 317.573 427.665 316.649 427.844ZM326.878 478.833C325.383 479.135 323.869 479.282 322.341 479.289C320.814 479.289 319.299 479.141 317.804 478.846C316.302 478.551 314.852 478.114 313.44 477.53C312.028 476.946 310.68 476.234 309.41 475.387C308.139 474.539 306.964 473.577 305.88 472.505C304.802 471.427 303.833 470.252 302.985 468.982C302.132 467.718 301.413 466.376 300.829 464.964C300.239 463.559 299.796 462.102 299.494 460.607C299.199 459.111 299.045 457.597 299.045 456.069C299.039 454.542 299.186 453.027 299.481 451.532C299.777 450.037 300.219 448.58 300.797 447.168C301.381 445.756 302.1 444.415 302.941 443.144C303.788 441.874 304.75 440.699 305.828 439.614C306.907 438.536 308.081 437.567 309.352 436.72C310.622 435.867 311.957 435.154 313.369 434.564C314.781 433.98 316.238 433.537 317.733 433.235C319.229 432.934 320.743 432.786 322.271 432.78C323.798 432.78 325.313 432.927 326.808 433.222C328.31 433.518 329.766 433.954 331.178 434.538C332.59 435.122 333.931 435.834 335.202 436.682C336.473 437.529 337.647 438.491 338.732 439.563C339.81 440.641 340.779 441.816 341.633 443.086C342.48 444.351 343.199 445.692 343.789 447.104C344.373 448.509 344.816 449.966 345.118 451.462C345.419 452.957 345.567 454.471 345.573 455.999C345.573 457.526 345.426 459.034 345.13 460.536C344.835 462.031 344.399 463.488 343.815 464.9C343.231 466.312 342.518 467.653 341.671 468.924C340.824 470.195 339.861 471.369 338.783 472.454C337.705 473.532 336.531 474.501 335.26 475.348C333.989 476.202 332.654 476.914 331.242 477.504C329.831 478.088 328.38 478.531 326.878 478.833Z" fill="#595958"></path><path d="M311.219 458.258L304.07 459.689C303.833 458.495 303.711 457.282 303.711 456.063C303.711 454.844 303.826 453.637 304.064 452.437C304.301 451.237 304.654 450.075 305.116 448.952C305.585 447.823 306.156 446.751 306.83 445.731C307.51 444.717 308.28 443.78 309.14 442.913C310 442.047 310.937 441.277 311.951 440.596C312.965 439.916 314.037 439.339 315.166 438.87C316.289 438.402 317.451 438.042 318.651 437.805L320.082 444.954C319.357 445.102 318.651 445.313 317.964 445.602C317.278 445.885 316.629 446.238 316.013 446.648C315.397 447.065 314.826 447.534 314.3 448.06C313.78 448.586 313.312 449.158 312.901 449.774C312.49 450.39 312.137 451.044 311.855 451.725C311.572 452.411 311.361 453.117 311.213 453.849C311.072 454.574 311.001 455.312 311.001 456.05C311.001 456.795 311.072 457.533 311.219 458.258Z" fill="#595958"></path><path d="M325.96 474.263L324.529 467.114C325.261 466.966 325.967 466.755 326.647 466.466C327.334 466.183 327.982 465.83 328.598 465.42C329.214 465.002 329.785 464.534 330.311 464.008C330.838 463.488 331.3 462.91 331.71 462.294C332.128 461.678 332.474 461.03 332.757 460.343C333.039 459.657 333.251 458.951 333.398 458.219C333.539 457.494 333.61 456.756 333.61 456.018C333.61 455.273 333.539 454.542 333.392 453.81L340.541 452.379C340.785 453.579 340.901 454.786 340.901 456.005C340.907 457.224 340.785 458.437 340.548 459.631C340.31 460.831 339.964 461.993 339.495 463.122C339.027 464.245 338.455 465.317 337.782 466.337C337.101 467.351 336.338 468.288 335.471 469.155C334.611 470.021 333.674 470.791 332.66 471.472C331.646 472.152 330.575 472.729 329.451 473.198C328.322 473.666 327.16 474.019 325.96 474.263Z" fill="#595958"></path></svg>